# AST/ASF file generated using VICON BodyLanguage
# -----------------------------------------------
:version 1.10
:name VICON
:units
  mass 1.0
  length 0.45
  angle deg
:documentation
   .ast/.asf automatically generated from VICON data using
   VICON BodyBuilder and BodyLanguage model FoxedUp or BRILLIANT.MOD
:root
   order TX TY TZ RX RY RZ
   axis XYZ
   position 0 0 0  
   orientation 0 0 0 
:bonedata
  begin
     id 1 
     name lhipjoint
     direction 0.660183 -0.676772 0.325788 
     length 2.75133 
     axis 0 0 0  XYZ
  end
  begin
     id 2 
     name lfemur
     direction 0.34202 -0.939693 0  
     length 7.70317  
     axis 0 0 20  XYZ
    dof rx ry rz
    limits (-160.0 20.0)
           (-70.0 70.0)
           (-60.0 70.0)
  end
  begin
     id 3 
     name ltibia
     direction 0.342105 -0.939662 0   
     length 7.18701   
     axis 0 0 20   XYZ
    dof rx
    limits (-10.0 170.0)
  end
  begin
     id 4 
     name lfoot
     direction 0.14163 -0.389126 0.910232   
     length 2.41719   
     axis -90 7.62852e-016 20   XYZ
    dof rx rz
    limits (-45.0 90.0)
           (-70.0 20.0)
  end
  begin
     id 5 
     name ltoes
     direction 1.53533e-011 -4.21926e-011 1   
     length 1.18611   
     axis -90 7.62852e-016 20   XYZ
    dof rx
    limits (-90.0 20.0)
  end
  begin
     id 6 
     name rhipjoint
     direction -0.6658 -0.67229 0.323631   
     length 2.76968  
     axis 0 0 0  XYZ 
  end
  begin
     id 7 
     name rfemur
     direction -0.34202 -0.939693 0   
     length 7.92547   
     axis 0 0 -20   XYZ
    dof rx ry rz
    limits (-160.0 20.0)
           (-70.0 70.0)
           (-70.0 60.0)
  end
  begin
     id 8 
     name rtibia
     direction -0.342022 -0.939692 0   
     length 7.22641   
     axis 0 0 -20   XYZ
    dof rx
    limits (-10.0 170.0)
 end
 begin
     id 9 
     name rfoot
     direction -0.105675 -0.29034 0.951071   
     length 2.48149  
     axis -90 -7.62852e-016 -20   XYZ
    dof rx rz
    limits (-45.0 90.0)
           (-20.0 70.0)
  end
  begin
     id 10 
     name rtoes
     direction -1.5349e-011 -4.21859e-011 1   
     length 1.23343   
     axis -90 -7.62852e-016 -20   XYZ
    dof rx
    limits (-90.0 20.0)
  end
  begin
     id 11 
     name lowerback
     direction 0.0104173 0.993624 -0.112266   
     length 2.00527   
     axis 0 0 0   XYZ
    dof rx ry rz
    limits (-20.0 45.0)
           (-30.0 30.0)
           (-30.0 30.0)
  end
  begin
     id 12 
     name upperback
     direction 0.00733149 0.999856 -0.0152913   
     length 2.01385   
     axis 0 0 0   XYZ
    dof rx ry rz
    limits (-20.0 45.0)
           (-30.0 30.0)
           (-30.0 30.0)
  end
  begin
     id 13 
     name thorax
     direction 0.0026304 0.999318 0.036841   
     length 2.03734   
     axis 0 0 0   XYZ
    dof rx ry rz
    limits (-20.0 45.0)
           (-30.0 30.0)
           (-30.0 30.0)
  end
  begin
     id 14 
     name lowerneck
     direction 0.0293154 0.998757 0.0403082   
     length 1.65303   
     axis 0 0 0   XYZ
    dof rx ry rz
    limits (-20.0 45.0)
           (-30.0 30.0)
           (-30.0 30.0)
  end
  begin
     id 15 
     name upperneck
     direction -0.0376619 0.998184 -0.0470083   
     length 1.60926   
     axis 0 0 0   XYZ
    dof rx ry rz
    limits (-20.0 45.0)
           (-30.0 30.0)
           (-30.0 30.0)
  end
  begin
     id 16
     name head
     direction -0.0170133 0.999635 -0.0209778  
     length 1.73625  
     axis 0 0 0   XYZ
    dof rx ry rz
    limits (-20.0 45.0)
           (-30.0 30.0)
           (-30.0 30.0)
  end
  begin
     id 17 
     name lclavicle
     direction 0.919857 0.39181 -0.0186333  
     length 3.75313  
     axis 0 0 0   XYZ
    dof ry rz
    limits (-20.0 10.0)
           (0.0 20.0)
  end
  begin
     id 18 
     name lhumerus
     direction 1 -4.48988e-011 1.44029e-027   
     length 5.49313   
     axis 180 -30 -90   XYZ
    dof rx ry rz
    limits (-60.0 90.0)
           (-90.0 90.0)
           (-90.0 90.0)
  end
  begin
     id 19
     name lradius
     direction 1 -4.48924e-011 7.46281e-027   
     length 3.29037   
     axis 180 -30 -90   XYZ
    dof rx
    limits (-10.0 170.0)
  end
  begin
     id 20
     name lwrist
     direction 1 -4.48955e-011 2.19879e-026   
     length 1.64519   
     axis -1.34358e-014 90 90   XYZ
    dof ry
    limits (-180.0 0.0)
 end
  begin
     id 21 
     name lhand
     direction 1 -4.48978e-011 4.39747e-026   
     length 0.729656   
     axis -2.80598e-014 90 90   XYZ
    dof rx rz
    limits (-90.0 90.0)
           (-45.0 45.0)
  end
  begin
     id 22 
     name lfingers
     direction 1 -4.49071e-011 8.79411e-026   
     length 0.588268   
     axis -5.61193e-014 90 90   XYZ
    dof rx
    limits (0.0 90.0)
  end
  begin
     id 23
     name lthumb
     direction 0.707107 -6.34817e-011 0.707107   
     length 0.844638   
     axis -90 45 -9.86923e-015   XYZ
    dof rx rz
    limits (-45.0 45.0)
           (-45.0 45.0)
  end
  begin
     id 24 
     name rclavicle
     direction -0.919898 0.388279 0.0550233   
     length 3.7171  
     axis 0 0 0   XYZ 
    dof ry rz
    limits (-10.0 20.0)
           (-20.0 0.0)
  end
  begin
     id 25 
     name rhumerus
     direction -1 -4.48968e-011 9.98372e-028  
     length 5.23684   
     axis 180 30 90   XYZ
    dof rx ry rz
    limits (-90.0 60.0)
           (-90.0 90.0)
           (-90.0 90.0)
  end
  begin
     id 26 
     name rradius
     direction -1 -4.48956e-011 1.01023e-026   
     length 3.38251   
     axis 180 30 90   XYZ
    dof rx
    limits (-10.0 170.0)
  end
  begin
     id 27 
     name rwrist
     direction -1 -4.4892e-011 2.19886e-026   
     length 1.69126   
     axis -1.34358e-014 -90 -90   XYZ
    dof ry
    limits (-180.0 0.0)
  end
  begin
     id 28
     name rhand
     direction -1 -4.49024e-011 4.39727e-026   
     length 0.691454   
     axis -2.80598e-014 -90 -90   XYZ
    dof rx rz
    limits (-90.0 90.0)
           (-45.0 45.0)
  end
  begin
     id 29
     name rfingers
     direction -1 -4.49097e-011 8.79388e-026   
     length 0.557468   
     axis -5.61193e-014 -90 -90   XYZ
    dof rx
    limits (0.0 90.0)
  end
  begin
     id 30
     name rthumb
     direction -0.707107 -6.34938e-011 0.707107   
     length 0.800416   
     axis -90 -45 9.86923e-015   XYZ
    dof rx rz
    limits (-45.0 45.0)
           (-45.0 45.0)
  end
:hierarchy
  begin
    root lhipjoint rhipjoint lowerback
    lhipjoint lfemur
    lfemur ltibia
    ltibia lfoot
    lfoot ltoes
    rhipjoint rfemur
    rfemur rtibia
    rtibia rfoot
    rfoot rtoes
    lowerback upperback
    upperback thorax
    thorax lowerneck lclavicle rclavicle
    lowerneck upperneck
    upperneck head
    lclavicle lhumerus
    lhumerus lradius
    lradius lwrist
    lwrist lhand lthumb
    lhand lfingers
    rclavicle rhumerus
    rhumerus rradius
    rradius rwrist
    rwrist rhand rthumb
    rhand rfingers
  end

#!OML:ASF H:\BabyWalks\Project 1\Capture day 1\Session 1\baby.ASF
:FULLY-SPECIFIED
:DEGREES
143
root -31.9789 16.9924 -1.86339 -21.654 81.9546 -29.403
lowerback 20.9609 -2.92966 1.27364
upperback 6.06762 -2.87629 3.83819
thorax -4.95719 -1.25045 4.09817
lowerneck -0.867456 2.51993 8.4273
upperneck -20.2596 1.97373 -14.9054
head -5.57576 1.64087 -6.3579
rclavicle -2.42517e-014 -1.19271e-015
rhumerus -47.0195 1.44909 -76.7487
rradius 38.3175
rwrist 6.19258
rhand -8.25243 -15.7794
rfingers 7.12502
rthumb 17.6659 -44.9969
lclavicle -2.42517e-014 -1.19271e-015
lhumerus -44.4226 -5.79701 83.0603
lradius 57.4107
lwrist 5.26476
lhand -2.07407 12.9921
lfingers 7.12502
lthumb 23.6023 41.5635
rfemur -34.7986 21.7093 16.6936
rtibia 41.3002
rfoot -15.8988 8.57785
rtoes -7.66456
lfemur -2.26382 -4.75744 -11.9098
ltibia 41.674
lfoot -18.6703 -28.198
ltoes 2.08699
144
root -31.8907 16.9941 -1.85195 -19.8952 81.9774 -27.7751
lowerback 21.0456 -2.90765 1.37385
upperback 5.98789 -2.81445 3.93789
thorax -5.09047 -1.21895 4.14215
lowerneck -0.722125 2.51239 8.56464
upperneck -20.1721 1.92684 -15.2558
head -5.56762 1.63399 -6.49774
rclavicle -3.00165e-014 -2.18663e-014
rhumerus -46.6772 1.06498 -76.5163
rradius 38.4418
rwrist 6.1728
rhand -8.96436 -15.8668
rfingers 7.12502
rthumb 16.9807 -45.1446
lclavicle -3.00165e-014 -2.18663e-014
lhumerus -44.3749 -6.11948 83.4525
lradius 57.2443
lwrist 5.15005
lhand -2.02928 12.8055
lfingers 7.12502
lthumb 23.6453 41.3714
rfemur -34.7989 21.739 16.5594
rtibia 41.6954
rfoot -16.3624 8.52839
rtoes -7.5788
lfemur -2.67904 -4.43318 -11.9868
ltibia 42.4749
lfoot -17.1749 -28.7905
ltoes 2.40363
145
root -31.8034 16.9982 -1.8429 -17.8322 81.9998 -25.8336
lowerback 21.1421 -2.89845 1.40582
upperback 5.92502 -2.7817 4.04216
thorax -5.20619 -1.20143 4.23722
lowerneck -0.624168 2.53485 8.62568
upperneck -20.0913 1.92269 -15.5683
head -5.55026 1.65032 -6.61193
rclavicle -2.74323e-014 1.78906e-014
rhumerus -46.2802 0.826689 -76.3266
rradius 38.6295
rwrist 5.99967
rhand -9.65112 -15.9233
rfingers 7.12502
rthumb 16.3196 -45.2566
lclavicle -2.74323e-014 1.78906e-014
lhumerus -44.3409 -6.36003 83.8468
lradius 57.1549
lwrist 5.07954
lhand -1.96466 12.6142
lfingers 7.12502
lthumb 23.7073 41.1721
rfemur -34.7755 21.7606 16.3734
rtibia 42.0498
rfoot -16.8046 8.50162
rtoes -7.45732
lfemur -3.11277 -4.10264 -12.1258
ltibia 43.3008
lfoot -15.6158 -29.2888
ltoes 2.86028
146
root -31.7167 17.0042 -1.83604 -15.583 82.0076 -23.6983
lowerback 21.2231 -2.87929 1.41626
upperback 5.8736 -2.74253 4.13019
thorax -5.30188 -1.18095 4.32406
lowerneck -0.498018 2.55307 8.68725
upperneck -20.0416 1.91622 -15.8558
head -5.54856 1.6656 -6.72012
rclavicle -1.98785e-015 4.33351e-014
rhumerus -45.887 0.634386 -76.1879
rradius 38.8852
rwrist 5.68803
rhand -10.2843 -15.9573
rfingers 7.12502
rthumb 15.7099 -45.3396
lclavicle -1.98785e-015 4.33351e-014
lhumerus -44.334 -6.62944 84.2317
lradius 57.148
lwrist 5.0757
lhand -1.81851 12.5016
lfingers 7.12502
lthumb 23.8475 41.0413
rfemur -34.7261 21.7859 16.1559
rtibia 42.3578
rfoot -17.2284 8.47662
rtoes -7.32625
lfemur -3.56232 -3.76401 -12.3036
ltibia 44.1596
lfoot -14.2061 -29.6899
ltoes 3.07831
147
root -31.6308 17.0121 -1.83116 -13.2763 81.9971 -21.5031
lowerback 21.3046 -2.85848 1.42411
upperback 5.82387 -2.70276 4.20559
thorax -5.39677 -1.16019 4.39851
lowerneck -0.36714 2.57258 8.74383
upperneck -20.003 1.91461 -16.1205
head -5.55128 1.68262 -6.82075
rclavicle 2.3059e-014 4.92986e-014
rhumerus -45.506 0.505005 -76.1031
rradius 39.2044
rwrist 5.25291
rhand -10.843 -15.9663
rfingers 7.12502
rthumb 15.1718 -45.3901
lclavicle 2.3059e-014 4.92986e-014
lhumerus -44.365 -6.91317 84.602
lradius 57.2152
lwrist 5.14092
lhand -1.68987 12.3136
lfingers 7.12502
lthumb 23.9708 40.8371
rfemur -34.6529 21.8232 15.9219
rtibia 42.6153
rfoot -17.629 8.44778
rtoes -7.1804
lfemur -4.03927 -3.41525 -12.4988
ltibia 45.0639
lfoot -12.9432 -30.0005
ltoes 3.0984
